{
  "accessors": [
    {
      "bufferView": 2,
      "componentType": 5126,
      "count": 13200,
      "max": [
        93.34513092041016,
        187.769775390625,
        17.239511489868164
      ],
      "min": [
        -93.34516906738281,
        -2.856416702270508,
        -13.466065406799316
      ],
      "type": "VEC3"
    },
    {
      "bufferView": 2,
      "byteOffset": 158400,
      "componentType": 5126,
      "count": 13200,
      "max": [
        0.9997497797012329,
        0.9996371269226074,
        0.9999116063117981
      ],
      "min": [
        -0.9997298717498779,
        -0.9999773502349854,
        -0.9999339580535889
      ],
      "type": "VEC3"
    },
    {
      "bufferView": 1,
      "componentType": 5126,
      "count": 13200,
      "max": [
        0.9971539974212646,
        0.9931089878082275
      ],
      "min": [
        0.0028460000175982714,
        0.004149079322814941
      ],
      "type": "VEC2"
    },
    {
      "bufferView": 0,
      "componentType": 5125,
      "count": 67884,
      "type": "SCALAR"
    }
  ],
  "asset": {
    "extras": {
      "author": "ALexz.art (https://sketchfab.com/ALexzart)",
      "license": "CC-BY-4.0 (http://creativecommons.org/licenses/by/4.0/)",
      "source": "https://sketchfab.com/3d-models/anime-boy-male-model-t-pose-base-basic-free-d140ddf33055491db5eab66a75ec6b00",
      "title": "Anime boy male model T-pose base basic FREE"
    },
    "generator": "Sketchfab-16.15.0",
    "version": "2.0"
  },
  "bufferViews": [
    {
      "buffer": 0,
      "byteLength": 271536,
      "name": "floatBufferViews",
      "target": 34963
    },
    {
      "buffer": 0,
      "byteLength": 105600,
      "byteOffset": 271536,
      "byteStride": 8,
      "name": "floatBufferViews",
      "target": 34962
    },
    {
      "buffer": 0,
      "byteLength": 316800,
      "byteOffset": 377136,
      "byteStride": 12,
      "name": "floatBufferViews",
      "target": 34962
    }
  ],
  "buffers": [
    {
      "byteLength": 693936,
      "uri": "scene.bin"
    }
  ],
  "extensionsRequired": [
    "KHR_materials_pbrSpecularGlossiness"
  ],
  "extensionsUsed": [
    "KHR_materials_pbrSpecularGlossiness"
  ],
  "materials": [
    {
      "doubleSided": true,
      "extensions": {
        "KHR_materials_pbrSpecularGlossiness": {
          "diffuseFactor": [
            1.0,
            0.6104955708078648,
            0.4851499400560704,
            1.0
          ],
          "glossinessFactor": 0.638,
          "specularFactor": [
            0.059,
            0.059,
            0.059
          ]
        }
      },
      "name": "Body"
    }
  ],
  "meshes": [
    {
      "name": "Anime_Boy_Body_Base_by_Alexz_art_Body_0",
      "primitives": [
        {
          "attributes": {
            "NORMAL": 1,
            "POSITION": 0,
            "TEXCOORD_0": 2
          },
          "indices": 3,
          "material": 0,
          "mode": 4
        }
      ]
    }
  ],
  "nodes": [
    {
      "children": [
        1
      ],
      "matrix": [
        1.0,
        0.0,
        0.0,
        0.0,
        0.0,
        2.220446049250313e-16,
        -1.0,
        0.0,
        0.0,
        1.0,
        2.220446049250313e-16,
        0.0,
        0.0,
        0.0,
        0.0,
        1.0
      ],
      "name": "Sketchfab_model"
    },
    {
      "children": [
        2
      ],
      "matrix": [
        0.009999999776482582,
        0.0,
        0.0,
        0.0,
        0.0,
        0.0,
        0.009999999776482582,
        0.0,
        0.0,
        -0.009999999776482582,
        0.0,
        0.0,
        0.0,
        0.0,
        0.0,
        1.0
      ],
      "name": "0b2f5b0a13fd40c08442bf3680eb1668.fbx"
    },
    {
      "children": [
        3
      ],
      "name": "RootNode"
    },
    {
      "children": [
        4
      ],
      "name": "Anime_Boy_Body_Base_by_Alexz_art"
    },
    {
      "mesh": 0,
      "name": "Anime_Boy_Body_Base_by_Alexz_art_Body_0"
    }
  ],
  "scene": 0,
  "scenes": [
    {
      "name": "Sketchfab_Scene",
      "nodes": [
        0
      ]
    }
  ]
}
